<?xml version="1.0" encoding="UTF-8" standalone="no"?>
<!DOCTYPE svg PUBLIC "-//W3C//DTD SVG 1.1//EN"
 "http://www.w3.org/Graphics/SVG/1.1/DTD/svg11.dtd">
<!-- Generated by graphviz version 2.44.0 (0)
 -->
<!-- Title: g Pages: 1 -->
<svg width="711pt" height="266pt"
 viewBox="0.00 0.00 710.69 265.74" xmlns="http://www.w3.org/2000/svg" xmlns:xlink="http://www.w3.org/1999/xlink">
<g id="graph0" class="graph" transform="scale(1 1) rotate(0) translate(4 261.74)">
<title>g</title>
<polygon fill="white" stroke="transparent" points="-4,4 -4,-261.74 706.69,-261.74 706.69,4 -4,4"/>
<!-- protected_application -->
<g id="node1" class="node">
<title>protected_application</title>
<ellipse fill="none" stroke="black" cx="467.69" cy="-26.87" rx="68.68" ry="26.74"/>
<text text-anchor="middle" x="467.69" y="-30.67" font-family="Times,serif" font-size="14.00">Protected</text>
<text text-anchor="middle" x="467.69" y="-15.67" font-family="Times,serif" font-size="14.00">Application</text>
</g>
<!-- keypress -->
<g id="node2" class="node">
<title>keypress</title>
<ellipse fill="none" stroke="black" cx="239.69" cy="-26.87" rx="53.89" ry="18"/>
<text text-anchor="middle" x="239.69" y="-23.17" font-family="Times,serif" font-size="14.00">Keypress</text>
</g>
<!-- keycloak -->
<g id="node3" class="node">
<title>keycloak</title>
<ellipse fill="none" stroke="black" cx="68.69" cy="-152.74" rx="51.99" ry="18"/>
<text text-anchor="middle" x="68.69" y="-149.04" font-family="Times,serif" font-size="14.00">Keycloak</text>
</g>
<!-- keypress&#45;&gt;keycloak -->
<g id="edge5" class="edge">
<title>keypress&#45;&gt;keycloak</title>
<path fill="none" stroke="black" d="M195.17,-37.12C172.53,-43.68 145.83,-54.47 126.69,-71.74 110.02,-86.79 116.91,-98.58 103.69,-116.74 100.81,-120.7 97.48,-124.63 94.04,-128.35"/>
<polygon fill="black" stroke="black" points="91.41,-126.03 86.93,-135.63 96.42,-130.92 91.41,-126.03"/>
<text text-anchor="middle" x="172.19" y="-98.04" font-family="Times,serif" font-size="14.00">Regular</text>
<text text-anchor="middle" x="172.19" y="-83.04" font-family="Times,serif" font-size="14.00">access token</text>
</g>
<!-- kong -->
<g id="node4" class="node">
<title>kong</title>
<polygon fill="none" stroke="black" points="494.69,-170.74 440.69,-170.74 440.69,-134.74 494.69,-134.74 494.69,-170.74"/>
<text text-anchor="middle" x="467.69" y="-149.04" font-family="Times,serif" font-size="14.00">Kong</text>
</g>
<!-- keypress&#45;&gt;kong -->
<g id="edge7" class="edge">
<title>keypress&#45;&gt;kong</title>
<path fill="none" stroke="black" d="M274.68,-40.77C292.65,-48.31 314.36,-58.88 331.69,-71.74 353.42,-87.86 350.25,-101.63 372.69,-116.74 390.29,-128.58 412.4,-137.04 430.86,-142.67"/>
<polygon fill="black" stroke="black" points="430.11,-146.09 440.69,-145.51 432.06,-139.37 430.11,-146.09"/>
<text text-anchor="middle" x="418.19" y="-105.54" font-family="Times,serif" font-size="14.00">Register</text>
<text text-anchor="middle" x="418.19" y="-90.54" font-family="Times,serif" font-size="14.00">Long&#45;lived</text>
<text text-anchor="middle" x="418.19" y="-75.54" font-family="Times,serif" font-size="14.00">access token</text>
</g>
<!-- keycloak&#45;&gt;keypress -->
<g id="edge6" class="edge">
<title>keycloak&#45;&gt;keypress</title>
<path fill="none" stroke="black" d="M33.8,-139.24C23.93,-133.9 14.34,-126.57 8.69,-116.74 -1.27,-99.4 -4.06,-87.15 8.69,-71.74 29.61,-46.48 115.3,-35.64 176.19,-31.08"/>
<polygon fill="black" stroke="black" points="176.77,-34.55 186.49,-30.35 176.27,-27.56 176.77,-34.55"/>
<text text-anchor="middle" x="54.19" y="-98.04" font-family="Times,serif" font-size="14.00">Long&#45;lived</text>
<text text-anchor="middle" x="54.19" y="-83.04" font-family="Times,serif" font-size="14.00">access token</text>
</g>
<!-- kong&#45;&gt;protected_application -->
<g id="edge3" class="edge">
<title>kong&#45;&gt;protected_application</title>
<path fill="none" stroke="black" d="M467.69,-134.52C467.69,-116.42 467.69,-87.4 467.69,-64.21"/>
<polygon fill="black" stroke="black" points="471.19,-64.02 467.69,-54.02 464.19,-64.02 471.19,-64.02"/>
<text text-anchor="middle" x="513.19" y="-98.04" font-family="Times,serif" font-size="14.00">Long&#45;lived</text>
<text text-anchor="middle" x="513.19" y="-83.04" font-family="Times,serif" font-size="14.00">access token</text>
</g>
<!-- kong&#45;&gt;keypress -->
<g id="edge4" class="edge">
<title>kong&#45;&gt;keypress</title>
<path fill="none" stroke="black" d="M440.35,-151.74C385.76,-151.09 266.3,-146.26 240.69,-116.74 226.21,-100.04 227.62,-74.2 231.68,-54.68"/>
<polygon fill="black" stroke="black" points="235.1,-55.4 234.04,-44.86 228.3,-53.76 235.1,-55.4"/>
<text text-anchor="middle" x="286.19" y="-98.04" font-family="Times,serif" font-size="14.00">Regular</text>
<text text-anchor="middle" x="286.19" y="-83.04" font-family="Times,serif" font-size="14.00">access token</text>
</g>
<!-- kong&#45;&gt;kong -->
<g id="edge2" class="edge">
<title>kong&#45;&gt;kong</title>
<path fill="none" stroke="black" d="M494.93,-160.61C504.72,-160.78 512.69,-158.15 512.69,-152.74 512.69,-149.44 509.73,-147.18 505.2,-145.95"/>
<polygon fill="black" stroke="black" points="505.25,-142.44 494.93,-144.87 504.51,-149.4 505.25,-142.44"/>
<text text-anchor="middle" x="607.69" y="-156.54" font-family="Times,serif" font-size="14.00">Exchange API Key</text>
<text text-anchor="middle" x="607.69" y="-141.54" font-family="Times,serif" font-size="14.00">for long&#45;lived access token</text>
</g>
<!-- client -->
<g id="node5" class="node">
<title>client</title>
<ellipse fill="none" stroke="black" cx="467.69" cy="-239.74" rx="38.19" ry="18"/>
<text text-anchor="middle" x="467.69" y="-236.04" font-family="Times,serif" font-size="14.00">Client</text>
</g>
<!-- client&#45;&gt;kong -->
<g id="edge1" class="edge">
<title>client&#45;&gt;kong</title>
<path fill="none" stroke="black" d="M467.69,-221.54C467.69,-209.9 467.69,-194.29 467.69,-180.98"/>
<polygon fill="black" stroke="black" points="471.19,-180.92 467.69,-170.92 464.19,-180.92 471.19,-180.92"/>
<text text-anchor="middle" x="496.19" y="-192.54" font-family="Times,serif" font-size="14.00">API Key</text>
</g>
</g>
</svg>
